<?xml version="1.0" encoding="UTF-8"?><svg id="Layer_2" xmlns="http://www.w3.org/2000/svg" width="335.21" height="87.15" viewBox="0 0 335.21 87.15"><defs><style>.cls-1{letter-spacing:.01em;}.cls-2{font-family:OPTIRodeo, OPTIRodeo;font-size:16.22px;}.cls-2,.cls-3{fill:#f9f9fa;}.cls-4{letter-spacing:.02em;}.cls-3,.cls-5,.cls-6{stroke-width:0px;}.cls-5{fill:#3557a7;}.cls-6{fill:#fff;}.cls-7{fill:none;font-family:AcuminVariableConcept, 'Acumin Variable Concept';font-size:22px;font-variation-settings:'wght' 194, 'wdth' 100, 'slnt' 0;stroke:#fff;stroke-miterlimit:10;}</style></defs><g id="Layer_1-2"><path class="cls-5" d="M23.11,67.05c-5.4-.45-10.21-2.03-14.28-4.7C2.89,58.36-.07,52.97,0,46.31c.06-5.4,2.22-9.84,6.43-13.21.92-.76,1.93-1.45,3-2.05-2.06-2.89-3.08-6.22-3.04-9.94.06-5.12,2.18-9.35,6.32-12.58,3.87-3.02,8.42-4.5,13.53-4.4.49,0,1.02.04,1.58.08,1.66.14,3.55.44,5.78.92l1.93.42c.48.11.92.18,1.31.21h.03s2.63-.17,2.63-.17h.47c.28.01.52.03.76.05,4.31.36,7.28,3.4,7.24,7.39v.37s-.93,5.61-.93,5.61c-.26,1.6-.35,2.22-.37,2.43v.15s-.05.34-.05.34c-.51,3.32-1.09,4.65-1.81,5.64-.15.19-.3.38-.46.56,1.07.78,1.96,1.53,2.7,2.27,3.91,4.03,5.86,8.86,5.79,14.37-.08,6.96-3.08,12.64-8.91,16.9-5.12,3.78-11.26,5.64-18.23,5.51-.87-.02-1.74-.06-2.58-.13Z"/><path class="cls-5" d="M62.41,64.75c-2.89-.35-5.41-1.36-7.48-3-2.79-2.22-4.32-5.38-4.3-8.89l.07-14.18c-2.58-1.33-4.09-3.77-4.07-6.57,0-1.73.55-3.27,1.58-4.47,1.07-1.26,2.47-1.95,6.52-3.21,2.78-.82,3.68-1.18,3.88-1.26,2.06-1.19,3.74-1.7,5.42-1.67.38,0,.76.03,1.11.07,2.56.31,4.6,1.59,5.72,3.49.47-.12.97-.23,1.49-.32,1.22-.2,2.34-.6,3.36-1.2,2.14-1.26,3.84-1.8,5.5-1.78.39,0,.76.03,1.11.07,3.45.41,5.94,2.58,6.52,5.66.17.78.25,1.76.24,3.18l-.09,19.8c4.06,2,4.38,5.53,4.38,6.63-.01,2.66-1.53,5-4.06,6.27l-.27.14-.28.11c-1.32.48-2.9.68-5.15.65l-6.9-.11c-.45,0-.89-.04-1.31-.09-1.14-.14-2.21-.45-3.16-.92-2.49,1.18-5.11,1.76-7.81,1.72-.68-.01-1.35-.06-1.99-.13Z"/><path class="cls-5" d="M99.35,72.64c-2.92-.38-5.67-1.16-8.18-2.32-7.33-3.46-8.48-8.78-8.51-11.64-.03-2.3.69-4.45,2.03-6.22-.27-.76-.42-1.56-.43-2.39-.02-1.94.85-3.85,2.73-6.02l1.71-1.96c-3.12-3.26-3.87-6.77-3.9-9.3-.05-4.7,2.24-8.85,6.46-11.68,3.45-2.37,7.66-3.58,12.47-3.56.87,0,1.76.06,2.68.17.52-1.1,1.25-2.11,2.18-3.03,2.16-2.14,4.96-3.27,8.11-3.26.54,0,1.09.04,1.62.1,2.19.28,4.13,1.11,5.79,2.46,2.25,1.84,3.51,4.33,3.53,7.02.03,2.51-1,4.78-2.98,6.55-.5.45-1.03.84-1.6,1.17.48,1.37.72,2.81.74,4.31.04,3.66-1.32,6.96-3.88,9.58,1.59,1,2.98,2.29,4.14,3.85,1.94,2.61,2.94,5.51,2.97,8.63.06,5.74-2.8,10.53-8.27,13.84-4.33,2.65-9.47,4-15.25,3.98-1.43,0-2.83-.09-4.18-.27Z"/><path class="cls-5" d="M133.75,64.97c-3.14-.37-5.9-1.57-8.18-3.57-2.94-2.57-4.52-5.96-4.67-10.07-.1-2.72.49-6.47,3.57-9.95-1.27-1.79-1.99-3.99-2.08-6.5-.17-4.49,1.68-8.36,5.36-11.21,3.31-2.57,7.58-3.93,12.71-4.04,1.46-.03,2.86.03,4.17.18,5.06.6,9.05,2.58,11.86,5.89,1.9,2.24,2.9,5.42,3.06,9.73l.47,12.59c3.03,2.26,3.75,4.65,3.81,6.27.17,4.44-4.44,6.65-5.95,7.38-1.46.66-2.83,1.27-4.22,1.88-1.57.82-3.03,1.23-4.47,1.26-.43,0-.86-.01-1.28-.06-1.54-.18-2.98-.77-4.19-1.69-2.38,1.3-4.87,1.98-7.42,2.04-.87.02-1.72-.02-2.55-.12Z"/><path class="cls-5" d="M163.73,64.88c-.97-.12-1.81-.32-2.57-.62l-.3-.12-.29-.16c-2.45-1.34-3.9-3.62-3.98-6.27-.08-2.77,1.38-5.18,3.96-6.61-.09-3-.26-9.37-.35-12.31-2.47-1.2-4.03-3.61-4.11-6.45-.05-1.86.61-6.36,7.85-7.99,1.19-.27,2.24-.71,3.12-1.31,2.05-1.42,3.74-2.06,5.47-2.09.42,0,.85.01,1.26.06,1.22.14,2.34.53,3.31,1.13,1.76-.96,3.69-1.45,5.78-1.48.57,0,1.13.02,1.68.09,2.8.33,5.2,1.55,7.13,3.63,2.1,2.26,3.21,5.1,3.31,8.44.1,3.45-.82,6.44-2.74,8.9-2.17,2.78-5.31,4.33-8.85,4.38-.5,0-1-.02-1.48-.08-.3-.04-.59-.08-.88-.14l.14,4.91c2.69,1.34,4.32,3.72,4.4,6.52.08,2.77-1.37,5.2-3.87,6.51l-.13.06c-1.35.65-2.99.94-5.35.98l-9.88.13c-1,.01-1.86-.02-2.63-.11Z"/><path class="cls-5" d="M195.86,63.74c-1.56-.19-2.7-.53-3.7-1.11-2.54-1.44-4-3.96-3.95-6.9.05-3.2,1.86-5.78,4.99-7.15l.14-8.84c-2.78-1.45-4.36-4.03-4.31-7.22.04-2.5,1.28-5.43,4.53-6.96l.02-1.03c-.16-.33-.27-.55-.35-.69-4.56-2.11-5.03-5.73-5-7.25.05-3.38,2.13-6.04,5.57-7.12l.2-.06c1.15-.3,2.63-.47,4.85-.53,2.39-.05,5.15-.63,8.25-1.71,3.69-1.3,6.86-1.89,9.68-1.82.69.02,1.38.07,2.05.15,4.23.51,7.87,2.23,10.82,5.11,3.46,3.38,5.17,7.54,5.1,12.35-.05,3.2-.96,6.22-2.71,8.99,3.64,3.46,5.45,7.97,5.36,13.38-.1,6.49-3.14,11.72-8.79,15.13-4.43,2.68-9.93,3.95-16.34,3.79l-13.87-.36c-.98-.03-1.8-.08-2.52-.17Z"/><path class="cls-5" d="M248.45,62.81c-5.46-.65-9.85-3.21-13.04-7.63-3.03-4.04-4.45-8.98-4.21-14.66.26-6.07,2.25-11.14,5.9-15.08,3.96-4.26,8.91-6.27,14.72-5.98.5.02.99.07,1.47.12,5.56.66,9.99,3.33,13.18,7.93,2.9,4.15,4.24,9.15,4,14.85-.24,5.69-2.06,10.5-5.39,14.31-3.77,4.39-9.01,6.56-15.14,6.25-.51-.03-1.01-.07-1.5-.12Z"/><path class="cls-5" d="M280.24,63.19c-1.69-.2-4.81-1.11-6.8-4.91l-8.68-17.1c-4.47-1.9-5.19-4.97-5.22-6.64-.06-3.34,2.82-5.11,5.61-6.83,2.34-1.46,3.2-2.01,3.5-2.22,1.58-1.41,3.32-2.13,5.17-2.13.37,0,.72.02,1.06.06,2.48.3,4.59,1.72,5.74,3.85.55-.22.86-.37,1.01-.45.35-.28,1.01-.81,2.5-1.95,1.32-1.02,2.97-1.57,4.75-1.58.37,0,.73.02,1.09.06,1.43.17,2.73.7,3.8,1.52,2.35-1.36,5.17-2.08,8.28-2.09.84,0,1.67.04,2.47.14,3.31.4,6.14,1.63,8.41,3.68,2.88,2.6,4.38,6.02,4.45,10.19.12,7.08-3.09,14.64-9.57,22.47-.56.68-1.24,1.38-2.03,2.08l-.2.17c-1.42,1.11-3.16,1.65-5.22,1.66l-4.27.02c-.36,0-.74-.02-1.11-.06-1.51-.18-2.89-.75-4.05-1.63-.11.1-.23.19-.34.28-1.3.98-2.93,1.45-4.99,1.46l-4.26.02c-.37,0-.74-.02-1.09-.06Z"/><path class="cls-5" d="M314.98,63.73c-5.25-.63-7.23-4.18-7.33-7.03-.09-2.66,1.24-5.01,3.6-6.45l-.98-26.24c-2.33-1.31-3.69-3.55-3.79-6.22-.05-1.46.35-6.35,7.69-7.93.88-.19,1.64-.54,2.39-1.1,1.95-1.49,3.73-2.21,5.57-2.24.34,0,.69.01,1.04.05.81.1,1.62.33,2.44.68l.19.08.19.1c1.97,1.04,3.27,2.68,3.69,4.61.14.61.2,1.38.28,3.6l1.2,34.21c2.47,1.35,3.96,3.64,4.05,6.3.09,2.51-1.18,4.79-3.39,6.11-1.48.88-3.31,1.33-5.6,1.38l-9.07.18c-.77.01-1.5-.02-2.17-.1Z"/><path class="cls-6" d="M23.57,62.88c-4.92-.46-9.27-1.93-12.93-4.38-5.11-3.5-7.63-8.19-7.51-13.95.1-4.62,1.98-8.4,5.59-11.24,1.62-1.32,3.48-2.34,5.56-3.05-3.08-2.97-4.6-6.62-4.51-10.84.09-4.33,1.92-7.89,5.44-10.58,3.39-2.59,7.36-3.84,11.8-3.71.43.01.9.04,1.39.09,1.54.14,3.3.44,5.41.92l1.92.44c.6.14,1.16.23,1.67.28.09,0,.17.02.26.02l2.7-.15h.36c.2.02.39.03.57.04,2.91.27,4.75,2.16,4.69,4.82v.19s-.95,5.42-.95,5.42c-.34,1.97-.41,2.52-.43,2.66v.11s-.03.17-.03.17c-.49,2.99-.97,3.95-1.41,4.55-.78,1-1.78,1.69-2.93,2.04,2.4,1.46,4.18,2.8,5.39,4.04,3.38,3.55,5.03,7.78,4.93,12.61-.13,6.13-2.82,11.12-8.01,14.83-4.66,3.37-10.25,5-16.58,4.82-.81-.02-1.61-.07-2.39-.14ZM19.49,43.46c-.27.41-.4.85-.41,1.39-.02.77.15,1.95,1.75,3.22,1.23.97,2.68,1.52,4.46,1.68.26.02.52.04.79.05,2.24.06,4.06-.47,5.54-1.62.97-.75,1.58-1.58,1.87-2.56-.3.39-.64.77-1.01,1.12-1.74,1.64-3.95,2.47-6.39,2.4-.31,0-.61-.03-.89-.05-5.41-.51-5.76-4.18-5.73-5.3,0-.11,0-.22.02-.33ZM29.23,15.75c-.09,0-.18-.01-.27-.02-.81-.02-1.44.17-1.96.6-.47.39-.67.78-.68,1.33-.01.52.13,1.22,1.31,2.06.93.63,2.69,1.64,5.24,2.98-.3-.77-.54-1.68-.72-2.75-.63-3.99-2.24-4.14-2.92-4.21Z"/><path class="cls-5" d="M20.82,31.62c-1.75-.91-3.1-1.79-4.05-2.63-2.95-2.57-4.38-5.74-4.3-9.5.07-3.56,1.55-6.44,4.44-8.65,2.89-2.21,6.23-3.26,10.04-3.15,1.61.05,3.69.36,6.25.94l1.92.44c1.01.23,1.95.36,2.81.38.37.01.59,0,.64-.06l1.85-.1h.24c1.77.06,2.64.79,2.61,2.22-.06.35-.37,2.1-.91,5.24-.31,1.77-.46,2.76-.46,2.96-.31,1.87-.63,3.03-.96,3.48-.66.85-1.55,1.25-2.68,1.22-1.77-.05-2.91-1.66-3.44-4.83-.66-4.19-2.6-6.33-5.82-6.42-1.5-.04-2.77.37-3.8,1.23-1.04.86-1.57,1.93-1.59,3.2-.03,1.63.77,3.02,2.4,4.19,1.32.9,3.92,2.35,7.79,4.34,4.83,2.48,8.11,4.6,9.84,6.38,2.88,3.03,4.28,6.63,4.2,10.8-.11,5.34-2.43,9.62-6.94,12.85-4.19,3.03-9.15,4.47-14.89,4.31-5.41-.15-10.02-1.5-13.83-4.05-4.33-2.97-6.45-6.89-6.35-11.77.08-3.86,1.62-6.97,4.62-9.33,2.73-2.21,6.18-3.44,10.37-3.67ZM31.4,37.18c.72,1.19,1.08,2.32,1.05,3.39-.04,1.73-.67,3.17-1.9,4.33-1.23,1.16-2.7,1.72-4.42,1.67-2.68-.08-4-.98-3.96-2.71,0-.3.15-.55.42-.75l.65-.52c.33-.24.49-.57.5-.98.02-1.17-.77-1.78-2.37-1.82-1.34-.04-2.5.44-3.49,1.43-.99.99-1.49,2.17-1.52,3.54-.04,2.03.87,3.79,2.74,5.26,1.87,1.48,4.17,2.25,6.91,2.33,2.89.08,5.33-.65,7.32-2.2,1.99-1.55,3.01-3.49,3.06-5.82s-1.62-4.72-5-7.16Z"/><path class="cls-6" d="M63.25,60.01c-2.36-.28-4.4-1.1-6.06-2.41-2.18-1.73-3.33-4.11-3.32-6.89l.07-15.81-1.31-.6c-1.78-.85-2.77-2.42-2.77-4.34,0-1.15.34-2.12.98-2.88.6-.71,1.51-1.23,5.28-2.4,3.49-1.03,4.23-1.39,4.34-1.45,1.63-.96,2.91-1.38,4.08-1.36.29,0,.56.02.82.05,2.23.27,3.76,1.55,4.15,3.45.06.23.1.52.12.93.91-.52,2.14-.95,3.77-1.23,1.54-.25,2.98-.76,4.29-1.54,1.67-.98,2.92-1.41,4.04-1.39.29,0,.56.02.82.05,2.27.27,3.81,1.6,4.16,3.57.1.43.2,1.14.19,2.68l-.1,21.51.76.3c3.29,1.25,3.63,3.65,3.63,4.62,0,1.73-.97,3.2-2.64,4.04l-.14.07-.15.05c-.96.35-2.27.5-4.13.47l-6.9-.11c-.36,0-.7-.03-1.02-.07-1.37-.16-2.51-.65-3.36-1.39-2.5,1.48-5.15,2.21-7.91,2.17-.58,0-1.15-.05-1.7-.11ZM70.02,47.29s.09,0,.14,0c.48,0,.57-.1.59-.13.06-.08.39-.56.39-1.98l.05-10-1.31-.6c-.09-.04-.17-.09-.26-.13l-.05,10.7c0,1.52.3,2.03.37,2.12h0s.04,0,.07.01Z"/><path class="cls-5" d="M73.85,53.99c-2.79,2.43-5.75,3.62-8.89,3.57-2.48-.04-4.49-.68-6.06-1.92-1.56-1.24-2.34-2.87-2.33-4.88v-.21s0-1.19,0-1.19l.07-14.51c0-1.03-.42-1.74-1.28-2.12l-1.59-.73c-.81-.39-1.21-1.05-1.21-1.98,0-.56.13-.99.39-1.29.25-.3,1.6-.83,4.03-1.58,2.69-.8,4.31-1.36,4.87-1.67,1.17-.68,2.06-1.02,2.66-1.01,1.42.02,2.2.53,2.35,1.51.05.09.07.82.07,2.18l-.08,16.98c-.01,3.13,1.08,4.72,3.28,4.75,2.46.04,3.69-1.51,3.71-4.64l.05-10.1c0-1.03-.42-1.74-1.28-2.13l-1.59-.73c-.81-.39-1.21-1.05-1.21-1.98,0-1.31,1.37-2.2,4.09-2.67,1.87-.3,3.61-.92,5.22-1.88,1.16-.68,2.02-1.02,2.57-1.01,1.41.02,2.19.53,2.34,1.51.1.38.15,1.1.14,2.18l-.1,21.67c0,1.08.38,1.76,1.15,2.05l1.31.51c1.29.49,1.93,1.22,1.92,2.2,0,.8-.41,1.4-1.22,1.8-.61.22-1.64.32-3.11.3l-6.9-.11c-2.27-.04-3.41-.99-3.4-2.85Z"/><path class="cls-6" d="M100.54,67.56c-2.63-.31-5.11-.99-7.37-2.01-5.73-2.64-7-6.49-7.06-9.26-.03-1.53.34-3.88,2.5-5.82-.77-1-.96-2.04-.98-2.8-.03-1.3.63-2.7,2.08-4.39l2.77-3.24c.04-.05.17-.21.46-.64-3.92-2.98-4.88-6.45-4.93-9.02-.08-3.89,1.73-7.22,5.24-9.63,2.98-2.09,6.65-3.17,10.89-3.2.77,0,1.6.04,2.44.14.67.08,1.36.19,2.08.34.29-1.57,1.04-2.97,2.24-4.18,1.63-1.65,3.75-2.53,6.15-2.54.43,0,.85.02,1.26.07,1.66.2,3.13.81,4.39,1.81,1.68,1.34,2.58,3.08,2.62,5.04.04,1.78-.69,3.4-2.1,4.69-.94.86-2.06,1.44-3.3,1.73,1.07,1.71,1.63,3.6,1.68,5.65.08,4-1.8,7.39-5.44,9.8-.23.15-.46.3-.69.44.21.05.41.11.61.17,2.62.81,4.79,2.32,6.44,4.49,1.63,2.15,2.49,4.55,2.54,7.13.1,4.82-2.29,8.87-6.92,11.74-3.88,2.43-8.51,3.68-13.76,3.72-1.31,0-2.6-.06-3.83-.21ZM105.56,53.41c.06.26.1.53.1.81.02.93-.26,1.68-.7,2.23.12,0,.25,0,.38,0,1.66-.01,3-.34,4.1-1,1.02-.62,1.01-1.01,1.01-1.15,0-.48-1.07-.71-1.95-.81-.67-.08-1.46-.11-2.35-.08h-.59ZM103.91,27.21c-.14.19-.33.51-.32,1.18.04,1.82.4,3.3,1.08,4.39.25.4.62.88.99.92.04,0,.07,0,.11,0,.03,0,.05,0,.07,0,.09-.17.29-.69.26-1.91v-.63c-.04-1.3-.37-2.35-1.02-3.23-.26-.35-.66-.78-1.04-.83-.02,0-.03,0-.05,0-.02.02-.05.05-.08.1Z"/><path class="cls-5" d="M111.59,21.47c-.23-.6-.35-1.19-.36-1.75-.03-1.58.52-2.95,1.66-4.11,1.14-1.15,2.54-1.73,4.21-1.74,1.51-.01,2.8.41,3.87,1.27,1.07.86,1.62,1.89,1.64,3.1.02,1.07-.4,2.01-1.28,2.81-.87.8-1.93,1.2-3.17,1.21-.38,0-.71-.18-.98-.55-.45-.79-.92-1.18-1.4-1.18-.81,0-1.21.43-1.19,1.27v.14c.12.42.29.79.51,1.12.11.09.58.58,1.41,1.46,1.55,1.67,2.34,3.6,2.39,5.79.07,3.17-1.37,5.73-4.29,7.66-2.61,1.74-5.8,2.63-9.58,2.66-1.03,0-2.16-.1-3.41-.33-.47.55-.71.95-.7,1.23.01.63.8.94,2.37.93h.89c.49,0,.97-.01,1.46-.02l2.43-.02c3.18-.02,5.59.22,7.22.72,2.06.64,3.75,1.82,5.05,3.53,1.3,1.72,1.98,3.6,2.02,5.65.08,3.96-1.82,7.15-5.71,9.56-3.46,2.17-7.57,3.27-12.32,3.31-3.72.03-7.06-.63-10-1.96-3.6-1.66-5.43-3.98-5.49-6.96-.06-2.75,1.63-4.65,5.06-5.7-2.33-.54-3.51-1.51-3.54-2.91-.01-.65.48-1.57,1.48-2.74l2.77-3.24c.37-.42,1.02-1.43,1.96-3.02-3.82-2.12-5.77-4.88-5.84-8.29-.06-3.08,1.31-5.58,4.14-7.52,2.55-1.79,5.67-2.7,9.34-2.72,2.1-.01,4.57.44,7.4,1.35ZM99.73,50.88c2.13,1.26,3.21,2.38,3.23,3.36.01.52-.17.8-.55.85l-1.37.36c-.59.1-.88.48-.87,1.14.03,1.65,1.78,2.46,5.23,2.43,2.16-.02,4-.48,5.52-1.4s2.27-2.03,2.24-3.34c-.05-2.43-2.42-3.58-7.12-3.45l-4.05.03-2.27.02ZM108.79,31.15c-.04-1.82-.54-3.38-1.51-4.68-.97-1.3-2.1-1.94-3.4-1.94-.86,0-1.59.38-2.16,1.13-.58.75-.86,1.66-.83,2.74.05,2.29.53,4.17,1.45,5.66.92,1.49,2.08,2.22,3.49,2.21,2.05-.01,3.05-1.51,2.98-4.5v-.63Z"/><path class="cls-6" d="M134.58,60.23c-2.57-.3-4.81-1.28-6.66-2.9-2.38-2.08-3.66-4.86-3.79-8.25-.11-2.86.72-6.59,4.56-9.78-1.9-1.52-2.96-3.79-3.07-6.68-.14-3.66,1.38-6.82,4.38-9.15,2.83-2.2,6.56-3.37,11.08-3.47,1.32-.03,2.59.03,3.77.17,4.33.51,7.72,2.17,10.06,4.93,1.51,1.78,2.31,4.46,2.45,8.19l.48,12.85c.03.7.26,1.14.81,1.53,1.92,1.36,2.93,2.87,2.99,4.49.11,2.81-3.23,4.42-4.49,5.03-1.42.64-2.81,1.26-4.22,1.88-1.22.65-2.31.97-3.32.99-.3,0-.59,0-.88-.04-1.62-.19-3.01-1.02-4.02-2.38-.02-.03-.05-.07-.07-.1-2.53,1.81-5.18,2.75-7.91,2.81-.74.02-1.46-.02-2.15-.1ZM140.61,47.76c.08,0,.16.01.24,0,.41,0,1.62-.04,1.65-3.6l-.13.08c-2.04,1.18-2,2.1-1.99,2.45.02.59.12.92.19,1.06.01,0,.03,0,.03,0ZM140.66,31.26c.44.18.81.42,1.12.72.23-.39.27-.74.25-1.07-.02-.51-.13-.74-.16-.79h0s-.11-.06-.41-.1c-.16-.02-.34-.03-.54-.02-.45.01-.67.14-.87.32-.22.21-.26.35-.25.56,0,.02,0,.04,0,.05l.86.32Z"/><path class="cls-5" d="M145.58,53.22c-2.9,2.95-5.88,4.46-8.94,4.53-2.77.06-5.07-.71-6.9-2.31-1.83-1.6-2.8-3.74-2.9-6.43-.16-4.38,2.35-7.77,7.56-10.17-3.91-.51-5.93-2.6-6.07-6.28-.11-2.88,1.03-5.25,3.4-7.09,2.38-1.84,5.52-2.81,9.44-2.9,5.32-.12,9.2,1.26,11.63,4.13,1.11,1.31,1.73,3.53,1.85,6.65l.48,12.85c.06,1.49.69,2.66,1.92,3.52,1.22.87,1.85,1.69,1.88,2.49s-.98,1.68-3.03,2.67c-1.39.62-2.79,1.25-4.23,1.88-.86.46-1.58.7-2.16.72-1.07.02-1.93-.41-2.6-1.31-.31-.43-.76-1.4-1.35-2.93ZM139.35,36.72c1.16-.57,2.11-1.09,2.85-1.56,1.76-1.13,2.6-2.57,2.54-4.31-.09-2.34-1.39-3.48-3.92-3.42-1.08.02-1.97.38-2.7,1.07-.72.69-1.06,1.5-1.03,2.45.05,1.29.54,2.05,1.47,2.28l1.12.42c.23.1.36.32.37.66.02.6-.21,1.4-.71,2.4ZM145.06,39.43c-.52.36-1.33.9-2.42,1.62l-1.71,1.01c-2.23,1.29-3.32,2.86-3.25,4.7.09,2.44,1.18,3.63,3.27,3.59,3.01-.07,4.42-2.44,4.25-7.11l-.14-3.8Z"/><path class="cls-6" d="M164.57,60.14c-.72-.09-1.32-.23-1.84-.44l-.15-.06-.14-.08c-1.63-.89-2.55-2.33-2.6-4.08-.06-2.06,1.16-3.77,3.33-4.69l.67-.29s-.44-15.48-.44-15.49l-1.27-.61c-1.7-.77-2.74-2.34-2.79-4.29-.04-1.54.65-4.29,5.8-5.45,1.53-.34,2.89-.92,4.06-1.72,1.59-1.09,2.81-1.59,3.94-1.61.31,0,.61.01.88.04,1.45.17,2.63.83,3.4,1.87,1.76-1.44,3.78-2.18,6.05-2.21.44,0,.88.02,1.3.07,2.12.25,3.94,1.18,5.41,2.77,1.66,1.79,2.54,4.07,2.62,6.78.08,2.86-.66,5.33-2.21,7.31-1.68,2.16-4.01,3.32-6.73,3.36-.37,0-.75-.01-1.11-.06-1.08-.13-2.08-.47-2.98-1.02-.41-.25-.74-.51-1.03-.77,0,.14,0,.29,0,.44l.29,10.36.73.28c2.23.84,3.56,2.52,3.62,4.58.05,1.82-.86,3.36-2.49,4.21l-.08.04c-.93.44-2.2.65-4.14.68l-9.88.14c-.87.01-1.61-.02-2.25-.09Z"/><path class="cls-5" d="M175.78,29.95c1.98-4.17,4.57-6.28,7.78-6.33,1.85-.03,3.39.62,4.62,1.95,1.23,1.33,1.88,3.04,1.93,5.13.06,2.29-.5,4.2-1.69,5.73-1.19,1.53-2.73,2.31-4.62,2.33-.97.01-1.82-.21-2.56-.66-.74-.45-1.12-.92-1.13-1.41,0-.19.09-.39.27-.59.42-.49.63-1.01.61-1.55-.03-.93-.53-1.38-1.51-1.37s-1.87.67-2.52,1.97c-.65,1.3-.95,2.9-.9,4.81l.29,10.39c.03,1.12.42,1.82,1.17,2.11l1.27.49c1.25.47,1.88,1.22,1.91,2.24.02.88-.35,1.52-1.11,1.92-.53.25-1.52.39-2.97.41l-9.88.14c-1.41.02-2.4-.09-2.99-.33-.79-.43-1.19-1.06-1.22-1.89-.03-1.02.55-1.79,1.75-2.3l1.22-.53c.72-.3,1.06-1.02,1.03-2.14l-.44-15.47c-.03-1.03-.46-1.75-1.3-2.18l-1.47-.71c-.84-.38-1.27-1.06-1.29-2.04-.04-1.37,1.21-2.34,3.75-2.91,1.87-.42,3.53-1.12,5-2.12,1.09-.75,1.89-1.13,2.42-1.13,1.25-.02,2.04.49,2.36,1.52.05.1.1.86.14,2.3l.06,2.22Z"/><path class="cls-6" d="M196.7,59c-1.15-.14-1.96-.37-2.61-.75-1.73-.98-2.67-2.63-2.64-4.65.04-2.33,1.39-4.12,3.82-5.04l1.1-.41c.02-.1.04-.25.04-.47l.18-11.83c-2.79-.78-4.38-2.75-4.34-5.46.02-1.09.43-4.25,4.5-5.22l.05-3.37s-.07-.13-.07-.13l-.04-.07c-.47-.98-.66-1.32-.72-1.41l-.05-.06-.07-.12c-.11-.19-.2-.3-.25-.37-3.66-1.37-4.18-3.82-4.16-5.17.03-2.28,1.4-4,3.74-4.74l.12-.03c.88-.23,2.2-.37,4.17-.43,2.67-.06,5.72-.69,9.09-1.86,3.37-1.18,6.21-1.73,8.68-1.66.6.02,1.21.06,1.79.13,3.59.43,6.69,1.89,9.19,4.34,2.93,2.86,4.38,6.4,4.32,10.5-.05,3.43-1.26,6.61-3.59,9.47.56.41,1.04.8,1.44,1.18,3.26,2.98,4.88,6.94,4.8,11.73-.09,5.67-2.63,10.05-7.55,13.03-3.97,2.4-8.96,3.54-14.83,3.39l-13.87-.36c-.88-.02-1.62-.07-2.25-.15ZM213.98,47.9c.94-.21,1.42-.62,1.72-.96.8-.91,1.24-2.55,1.28-4.75.06-3.7-1.23-4.89-2.82-5.33l-.17,11.04ZM214.74,16.67c-.14.51-.31,1.52-.34,3.44l-.06,4.2c.4-.6.83-1.75.87-3.97.03-2.19-.26-3.22-.46-3.67Z"/><path class="cls-5" d="M224.88,30.6c1.63.99,2.85,1.85,3.63,2.58,2.71,2.49,4.04,5.76,3.97,9.84-.07,4.78-2.18,8.42-6.32,10.92-3.53,2.14-7.97,3.13-13.32,3l-13.87-.36c-1.85-.05-3.02-.22-3.52-.52-.89-.5-1.33-1.29-1.31-2.38.02-1.28.73-2.18,2.14-2.72l1.43-.53c.9-.36,1.37-1.24,1.39-2.66l.22-14.06c-.5-.01-.77-.04-.82-.09-2.4-.25-3.58-1.3-3.55-3.15.03-1.99,1.52-2.99,4.47-3.01l.1-6.82c0,.38-.13.35-.37-.08-.48-1.01-.8-1.61-.95-1.8-.49-.82-.98-1.3-1.48-1.46-1.74-.61-2.6-1.53-2.58-2.77s.65-1.97,1.91-2.37c.65-.17,1.83-.28,3.53-.34,2.95-.07,6.26-.74,9.93-2.02,3.02-1.06,5.57-1.56,7.67-1.51,3.65.09,6.68,1.32,9.09,3.68,2.41,2.36,3.59,5.24,3.54,8.65-.06,3.69-1.71,7.01-4.95,9.96ZM211.58,27.77h.52c3.8.11,5.74-2.35,5.81-7.37.07-4.31-1-6.49-3.2-6.55-1.1-.03-1.87.41-2.31,1.33-.44.91-.68,2.53-.71,4.85l-.12,7.74ZM211.23,50.57l1.12.03c4.8.12,7.24-2.65,7.33-8.34.08-5.35-2.38-8.09-7.37-8.22l-.83-.02-.25,16.55Z"/><path class="cls-6" d="M249.28,58.06c-4.65-.55-8.39-2.74-11.11-6.52-2.68-3.58-3.95-8-3.73-13.08.24-5.47,2-10.01,5.23-13.5,3.39-3.65,7.62-5.37,12.56-5.12.44.02.86.06,1.28.11,4.72.56,8.5,2.84,11.23,6.77,2.57,3.69,3.77,8.17,3.55,13.31-.22,5.11-1.83,9.42-4.77,12.79-3.27,3.81-7.62,5.61-12.93,5.34-.44-.02-.88-.06-1.31-.11ZM251.69,30.99s-1.42,1-1.72,7.91c-.3,7.03,1.16,8.12,1.18,8.13h0s1.47-.97,1.78-7.98h0c.3-6.99-1.16-8.05-1.18-8.05h-.06Z"/><path class="cls-5" d="M265.59,39.9c-.2,4.57-1.58,8.32-4.16,11.27-2.73,3.18-6.3,4.65-10.73,4.43-4.38-.22-7.82-2.05-10.3-5.49-2.36-3.15-3.44-6.99-3.25-11.51.21-4.89,1.73-8.86,4.57-11.92,2.84-3.05,6.31-4.48,10.41-4.27,4.43.22,7.88,2.13,10.36,5.71,2.26,3.24,3.3,7.17,3.1,11.78ZM255.64,39.12v.07c.3-7.03-.98-10.62-3.84-10.77s-4.23,3.31-4.54,10.34c-.31,7.08.97,10.69,3.83,10.84,2.72.14,4.24-3.36,4.54-10.48Z"/><path class="cls-6" d="M281.08,58.45c-1.4-.17-3.34-.91-4.68-3.48l-8.94-17.6c-.12-.23-.46-.47-.96-.67-3.03-1.24-3.7-3.06-3.72-4.36-.03-1.66,1.27-2.73,4.39-4.66,2.76-1.72,3.54-2.24,3.75-2.39,1.13-1.04,2.27-1.55,3.47-1.56.25,0,.48.01.71.04,1.72.21,3.11,1.22,3.8,2.79l.93,2.03c.61-.4,1.34-.76,2.2-1.08,1.06-.41,1.55-.68,1.74-.8.3-.25.94-.77,2.59-2.02.85-.66,1.92-1.02,3.08-1.02.26,0,.51.01.74.04,1.64.2,2.97,1.1,3.7,2.49,2.23-1.99,5.17-3.03,8.73-3.04.73,0,1.44.04,2.11.12,2.72.33,5.03,1.33,6.86,2.98,2.32,2.09,3.53,4.9,3.59,8.35.11,6.48-2.91,13.5-9,20.86-.48.58-1.07,1.19-1.75,1.79l-.13.11c-.88.68-2.05,1.03-3.47,1.04l-4.27.02c-.26,0-.52-.01-.76-.04-1.17-.14-3.26-.77-4.47-3.38-.7,1.31-1.27,2.07-1.92,2.56-.81.61-1.9.91-3.33.91l-4.27.02c-.25,0-.5-.01-.74-.04ZM300.77,41.69c.08-.17.16-.33.25-.5.21-.44.4-.85.56-1.24-.42.12-.9.22-1.45.29l.64,1.45Z"/><path class="cls-5" d="M293.33,31.52c1.73-3.83,4.84-5.75,9.34-5.77,2.95-.01,5.31.78,7.08,2.38,1.78,1.6,2.69,3.77,2.73,6.5.1,5.9-2.71,12.32-8.43,19.24-.39.48-.88.98-1.47,1.5-.39.31-.99.46-1.79.46l-4.27.02c-1.3,0-2.23-.69-2.81-2.07l-2.19-5.14-2.61,5.15c-.48.91-.89,1.49-1.21,1.73s-.88.36-1.68.36l-4.27.02c-1.25,0-2.23-.68-2.96-2.07l-8.92-17.58c-.41-.82-1.2-1.47-2.36-1.94-1.36-.56-2.04-1.23-2.06-2.01,0-.35,1.05-1.17,3.18-2.48,2.52-1.57,3.88-2.44,4.07-2.61.64-.61,1.21-.92,1.71-.92.95,0,1.6.41,1.97,1.23l9.11,19.89,2.46-5.09-3.18-6.24c-.41-.78-1.1-1.41-2.06-1.88-1.11-.52-1.78-.88-2-1.1-.23-.22-.35-.54-.35-.98-.01-.82.87-1.57,2.66-2.22,1.14-.44,1.96-.83,2.45-1.18.3-.26,1.16-.94,2.59-2.03.39-.3.86-.46,1.41-.46,1,0,1.68.41,2.04,1.23l1.79,4.03ZM300.51,47.71c.97-1.52,1.96-3.33,2.98-5.42,1.3-2.7,1.94-4.96,1.9-6.78-.01-.78-.28-1.43-.78-1.95-.51-.52-1.11-.78-1.81-.77-1.3,0-1.94.53-1.92,1.57,0,.3.11.54.31.72l.69.78s.08.17.08.39c.02,1-1.1,1.5-3.34,1.51-1.2,0-2.13-.21-2.78-.64l4.68,10.6Z"/><path class="cls-6" d="M315.81,58.99c-4.45-.53-4.9-3.6-4.93-4.53-.07-1.99,1.04-3.65,3.04-4.57l.62-.28-1.1-29.37-1.05-.49c-1.68-.82-2.61-2.3-2.68-4.19-.05-1.54.6-4.29,5.61-5.36,1.26-.28,2.39-.79,3.44-1.57,1.49-1.13,2.76-1.68,3.97-1.71.21,0,.42,0,.64.03.53.06,1.08.22,1.64.46l.1.04.09.05c1.65.87,2.17,2.09,2.33,2.87.09.37.15.98.22,3.14l1.25,35.8.63.25c2.07.85,3.3,2.47,3.36,4.45.06,1.62-.72,3.03-2.14,3.88-1.05.63-2.44.95-4.23.99l-9.07.18c-.64.01-1.23-.01-1.77-.08Z"/><path class="cls-5" d="M326.33,49.46c.04,1.17.42,1.84,1.15,2.01l1.16.47c1.09.44,1.65,1.16,1.69,2.14.05,1.45-1.2,2.19-3.75,2.24l-9.07.18c-2.55.05-3.86-.65-3.91-2.09-.03-.98.48-1.71,1.54-2.2l1.13-.51c.7-.34,1.04-1.02,1-2.05l-1.1-29.52c-.03-.98-.42-1.65-1.15-2.01l-1.44-.67c-.73-.36-1.11-1-1.14-1.94-.05-1.35,1.13-2.29,3.53-2.8,1.64-.36,3.14-1.04,4.5-2.05,1-.77,1.8-1.16,2.38-1.17.31,0,.68.08,1.09.26.59.32.92.71.98,1.17.05.14.1,1.03.16,2.66l1.26,35.89Z"/><text class="cls-2" transform="translate(227.33 82.7) rotate(-.05) scale(1.48 1) skewX(-.09)"><tspan x="0" y="0">GRILLE</tspan></text><path class="cls-3" d="M219.43,73.26c-1.28-.02-2.64-.27-4.19-.62,1.64,1.41,2.11,2.45,2.08,3.53-.05,1.65-1.41,3.2-3.67,4.61,1.85.85,3.31,1.33,4.09,1.34.93.01,2.78-.48,3.25-.65.47-.17.69.29.46.42-1.82.93-3.9,1.7-5.7,1.67-1.29-.02-2.91-.53-4.83-1.46-2.76,1.04-6.35,1.56-10.05,1.51-6.43-.09-10.85-2.24-10.75-5.79.06-2.09,2.03-4.35,6.41-5.09-1.02-1.1-1.69-2.16-1.67-3.06.06-1.98,2.52-3.78,7.04-3.71,1.67.02,3.54.33,4.81.69l-.68,1.95c-.08.21-.67.22-.82.01-.78-1.2-1.91-1.55-3.89-1.57-2.34-.03-3.87.46-3.91,1.85-.04,1.57,3.43,4.19,8.09,7.32,2.33,1.55,4.75,2.92,6.82,3.96,1.59-.98,2.63-2.18,2.67-3.57.06-2.25-3.28-4.44-5.45-4.27-2.68.21-3.64,3.5-4.04,3.88s-3.24-.61.47-3.9c1.1-.98,4.22-1.07,4.73-1.1,2.32-.13,3.46.43,7.15.49,1.95.03,3.09-.4,3.94-1.54.16-.2.63-.15.66.06.07.28.17,1.01.15,1.62-.02.75-.82,1.46-3.19,1.42ZM203.57,77.96c-2.3-1.45-4.63-3.05-6.3-4.54-2.62.53-3.89,1.23-3.95,3.22-.07,2.5,2.64,5.78,9.19,5.87,2.49.03,5.07-.34,7.12-1.03-1.84-.93-3.88-2.14-6.06-3.51Z"/><text class="cls-2" transform="translate(120.88 82.57) rotate(-.05) scale(1.48 1) skewX(-.09)"><tspan x="0" y="0">BAR</tspan></text><text class="cls-7" transform="translate(145.35 19.22)"><tspan class="cls-1" x="0" y="0">T</tspan><tspan class="cls-4" x="12.08" y="0">he</tspan></text></g></svg>